<svg xmlns="http://www.w3.org/2000/svg" width="128" height="128" viewBox="0 0 128 128">
  <defs>
    <!-- Blue gradient from light to dark -->
    <linearGradient id="shieldGradient" x1="0%" y1="0%" x2="0%" y2="100%">
      <stop offset="0%" style="stop-color:#60a5fa;stop-opacity:1"/>
      <stop offset="50%" style="stop-color:#3b82f6;stop-opacity:1"/>
      <stop offset="100%" style="stop-color:#2563eb;stop-opacity:1"/>
    </linearGradient>
    
    <!-- Shine effect -->
    <radialGradient id="shine" cx="35%" cy="25%">
      <stop offset="0%" style="stop-color:#ffffff;stop-opacity:0.3"/>
      <stop offset="100%" style="stop-color:#ffffff;stop-opacity:0"/>
    </radialGradient>
  </defs>
  
  <!-- Shield shape -->
  <path d="M 64 10 
           L 104 28 
           L 104 64 
           Q 104 95, 64 118 
           Q 24 95, 24 64 
           L 24 28 
           Z" 
        fill="url(#shieldGradient)" 
        stroke="#1e40af" 
        stroke-width="2"/>
  
  <!-- Arrows entering the shield -->
  <!-- Arrow 1 - from top left -->
  <g opacity="0.9">
    <line x1="32" y1="35" x2="48" y2="48" stroke="#ffffff" stroke-width="2.5" stroke-linecap="round"/>
    <polygon points="48,48 44,44 44,49 47,52" fill="#ffffff"/>
  </g>
  
  <!-- Arrow 2 - from top right -->
  <g opacity="0.85">
    <line x1="96" y1="42" x2="78" y2="55" stroke="#ffffff" stroke-width="2.5" stroke-linecap="round"/>
    <polygon points="78,55 80,51 76,50 74,54" fill="#ffffff"/>
  </g>
  
  <!-- Arrow 3 - from left side -->
  <g opacity="0.9">
    <line x1="18" y1="64" x2="38" y2="64" stroke="#ffffff" stroke-width="2.5" stroke-linecap="round"/>
    <polygon points="38,64 34,60 34,68 38,64" fill="#ffffff"/>
  </g>
  
  <!-- Arrow 4 - from right side -->
  <g opacity="0.85">
    <line x1="110" y1="72" x2="88" y2="72" stroke="#ffffff" stroke-width="2.5" stroke-linecap="round"/>
    <polygon points="88,72 92,68 92,76 88,72" fill="#ffffff"/>
  </g>
  
  <!-- Shine overlay -->
  <ellipse cx="50" cy="40" rx="35" ry="30" fill="url(#shine)"/>
</svg>
